<?xml version="1.0" standalone="no"?><svg xmlns="http://www.w3.org/2000/svg" viewBox="0 0 1440 320"><path fill="#0099ff" fill-opacity="1" d="M0,32L18.5,53.3C36.9,75,74,117,111,160C147.7,203,185,245,222,218.7C258.5,192,295,96,332,80C369.2,64,406,128,443,133.3C480,139,517,85,554,106.7C590.8,128,628,224,665,256C701.5,288,738,256,775,256C812.3,256,849,288,886,250.7C923.1,213,960,107,997,53.3C1033.8,0,1071,0,1108,16C1144.6,32,1182,64,1218,112C1255.4,160,1292,224,1329,224C1366.2,224,1403,160,1422,128L1440,96L1440,320L1421.5,320C1403.1,320,1366,320,1329,320C1292.3,320,1255,320,1218,320C1181.5,320,1145,320,1108,320C1070.8,320,1034,320,997,320C960,320,923,320,886,320C849.2,320,812,320,775,320C738.5,320,702,320,665,320C627.7,320,591,320,554,320C516.9,320,480,320,443,320C406.2,320,369,320,332,320C295.4,320,258,320,222,320C184.6,320,148,320,111,320C73.8,320,37,320,18,320L0,320Z"></path></svg>